<?xml version="1.0" encoding="utf-8"?>
<!-- Generator: Adobe Illustrator 21.0.0, SVG Export Plug-In . SVG Version: 6.00 Build 0)  -->
<svg version="1.1" xmlns="http://www.w3.org/2000/svg" xmlns:xlink="http://www.w3.org/1999/xlink" x="0px" y="0px"
	 viewBox="0 0 332 323.5" style="enable-background:new 0 0 332 323.5;" xml:space="preserve">
<style type="text/css">
	.st0{fill:none;stroke:#000000;}
	.st1{fill:#ADA6AC;}
	.st2{font-family:'Helvetica';}
	.st3{font-size:8px;}
	.st4{font-family:'Helvetica-Oblique';}
	.st5{font-size:6px;}
	.st6{font-family:'Symbol';}
</style>
<g id="Arrows">
	<g>
		<line class="st0" x1="163" y1="36.8" x2="163" y2="51.8"/>
		<polygon points="160.8,50.2 163,51.1 165.2,50.2 163,55.4 		"/>
	</g>
	<g>
		<line class="st0" x1="58.3" y1="150.7" x2="58.3" y2="167.3"/>
		<polygon points="56.1,165.7 58.3,166.6 60.6,165.7 58.3,170.9 		"/>
	</g>
	<g>
		<line class="st0" x1="120.6" y1="93.8" x2="111.3" y2="110.2"/>
		<polygon points="110.2,107.6 111.7,109.6 114.1,109.9 109.5,113.3 		"/>
	</g>
	<g>
		<line class="st0" x1="222.8" y1="266.8" x2="212.8" y2="284.2"/>
		<polygon points="211.7,281.6 213.2,283.6 215.6,283.9 211,287.3 		"/>
	</g>
	<g>
		<line class="st0" x1="211.4" y1="93.5" x2="221" y2="109.9"/>
		<polygon points="218.3,109.6 220.7,109.3 222.1,107.4 222.8,113 		"/>
	</g>
	<g>
		<line class="st0" x1="108.5" y1="267" x2="118.5" y2="283.4"/>
		<polygon points="115.8,283.1 118.2,282.8 119.6,280.9 120.3,286.5 		"/>
	</g>
	<g>
		<line class="st0" x1="58.3" y1="208.7" x2="58.3" y2="225.3"/>
		<polygon points="56.1,223.7 58.3,224.6 60.6,223.7 58.3,228.9 		"/>
	</g>
	<g>
		<line class="st0" x1="269" y1="208.7" x2="269" y2="225.3"/>
		<polygon points="266.8,223.7 269,224.6 271.2,223.7 269,228.9 		"/>
	</g>
	<g>
		<line class="st0" x1="269" y1="150.7" x2="269" y2="167.3"/>
		<polygon points="266.8,165.7 269,166.6 271.2,165.7 269,170.9 		"/>
	</g>
</g>
<g id="Boxes">
	<rect x="104.2" class="st1" width="123" height="36.4"/>
	<rect x="104.2" y="56.6" class="st1" width="123" height="36.4"/>
	<rect x="104.2" y="287.1" class="st1" width="123" height="36.4"/>
	<rect y="113.6" class="st1" width="123" height="36.4"/>
	<rect x="209" y="113.6" class="st1" width="123" height="36.4"/>
	<rect y="171.6" class="st1" width="123" height="36.4"/>
	<rect x="209" y="171.6" class="st1" width="123" height="36.4"/>
	<rect y="230.1" class="st1" width="123" height="36.4"/>
	<rect x="209" y="230.1" class="st1" width="123" height="36.4"/>
</g>
<g id="Type">
	<text transform="matrix(1 0 0 1 134.1787 15.3499)"><tspan x="0" y="0" class="st2 st3">Fermat equation</tspan><tspan x="8" y="12" class="st4 st3">a</tspan><tspan x="12.8" y="10" class="st4 st5">n</tspan><tspan x="16.1" y="12" class="st2 st3"> + </tspan><tspan x="25.3" y="12" class="st4 st3">b</tspan><tspan x="30.1" y="10" class="st4 st5">n</tspan><tspan x="33.4" y="12" class="st2 st3"> = </tspan><tspan x="42.6" y="12" class="st4 st3">c</tspan><tspan x="47" y="10" class="st4 st5">n</tspan></text>
	<text transform="matrix(1 0 0 1 137.0752 70.1834)"><tspan x="0" y="0" class="st2 st3">Elliptic curve </tspan><tspan x="47.1" y="0" class="st4 st3">E</tspan><tspan x="-10.9" y="12" class="st4 st3">y</tspan><tspan x="-6.1" y="10" class="st2 st5">2</tspan><tspan x="-2.8" y="12" class="st2 st3"> = </tspan><tspan x="6.3" y="12" class="st4 st3">x</tspan><tspan x="10.3" y="12" class="st2 st3">(</tspan><tspan x="13" y="12" class="st4 st3">x</tspan><tspan x="17" y="12" class="st2 st3"> + </tspan><tspan x="26.1" y="12" class="st4 st3">a</tspan><tspan x="31" y="10" class="st4 st5">n</tspan><tspan x="34.3" y="12" class="st2 st3">)(</tspan><tspan x="39.6" y="12" class="st4 st3">x</tspan><tspan x="43.6" y="12" class="st2 st3"> – </tspan><tspan x="52.5" y="12" class="st4 st3">b</tspan><tspan x="57.4" y="10" class="st4 st5">n</tspan><tspan x="60.7" y="12" class="st2 st3">)</tspan></text>
	<text transform="matrix(1 0 0 1 51.3134 123.8499)"><tspan x="0" y="0" class="st4 st3">E</tspan><tspan x="5.3" y="0" class="st2 st3">(</tspan><tspan x="7.8" y="0" class="st4 st3">p</tspan><tspan x="12.2" y="0" class="st2 st3">)</tspan><tspan x="-18.5" y="12" class="st2 st3">Rational points</tspan><tspan x="-16.8" y="21.6" class="st2 st3">of </tspan><tspan x="-8.1" y="21.6" class="st4 st3">E</tspan><tspan x="-2.9" y="21.6" class="st2 st3"> modulo </tspan><tspan x="27.2" y="21.6" class="st4 st3">p</tspan></text>
	<text transform="matrix(1 0 0 1 261.4808 123.1834)"><tspan x="0" y="0" class="st4 st3">E</tspan><tspan x="5.3" y="0" class="st2 st3">[</tspan><tspan x="7.4" y="0" class="st4 st3">m</tspan><tspan x="14" y="0" class="st2 st3">]</tspan><tspan x="-25.5" y="12" class="st2 st3">Points whose order</tspan><tspan x="-8.5" y="21.6" class="st2 st3">divides </tspan><tspan x="18" y="21.6" class="st4 st3">m</tspan></text>
	<text transform="matrix(1 0 0 1 48.1288 181.8499)"><tspan x="0" y="0" class="st2 st3">#</tspan><tspan x="4.4" y="0" class="st4 st3">E</tspan><tspan x="9.6" y="0" class="st2 st3">(</tspan><tspan x="12.2" y="0" class="st4 st3">p</tspan><tspan x="16.6" y="0" class="st2 st3">)</tspan><tspan x="-22.6" y="12" class="st2 st3">Number of rational</tspan><tspan x="-27.2" y="21.6" class="st2 st3">points on </tspan><tspan x="6.7" y="21.6" class="st4 st3">E</tspan><tspan x="11.9" y="21.6" class="st2 st3"> modulo </tspan><tspan x="42" y="21.6" class="st4 st3">p</tspan></text>
	<text transform="matrix(1 0 0 1 262.682 181.4334)"><tspan x="0" y="0" class="st6 st3">r</tspan><tspan x="4.3" y="0" class="st2 st3">(</tspan><tspan x="6.9" y="0" class="st6 st3">s</tspan><tspan x="11.6" y="0" class="st2 st3">)</tspan><tspan x="-25.7" y="12" class="st2 st3">Representations of</tspan><tspan x="-21.6" y="21.6" class="st2 st3">the Galois group</tspan></text>
	<text transform="matrix(1 0 0 1 26.982 240.1834)"><tspan x="0" y="0" class="st4 st3">a</tspan><tspan x="4.4" y="2" class="st4 st5">p</tspan><tspan x="7.6" y="0" class="st2 st3"> = 1 + </tspan><tspan x="29.8" y="0" class="st4 st3">p</tspan><tspan x="34.1" y="0" class="st2 st3"> – #</tspan><tspan x="47.2" y="0" class="st4 st3">E</tspan><tspan x="52.4" y="0" class="st2 st3">(</tspan><tspan x="55" y="0" class="st4 st3">p</tspan><tspan x="59.4" y="0" class="st2 st3">)</tspan><tspan x="6.7" y="12" class="st4 st3">p</tspan><tspan x="11.4" y="12" class="st2 st3">th coefficient</tspan><tspan x="6.2" y="21.6" class="st2 st3">of the </tspan><tspan x="27.9" y="21.6" class="st4 st3">L</tspan><tspan x="32.3" y="21.6" class="st2 st3">-series</tspan></text>
	<text transform="matrix(1 0 0 1 229.8386 239.9334)"><tspan x="0" y="0" class="st4 st3">a</tspan><tspan x="4.4" y="2" class="st4 st5">p</tspan><tspan x="7.6" y="0" class="st2 st3"> mod </tspan><tspan x="27.3" y="0" class="st4 st3">m</tspan><tspan x="33.8" y="0" class="st2 st3"> = trace </tspan><tspan x="62.2" y="0" class="st6 st3">r</tspan><tspan x="66.6" y="0" class="st2 st3">(</tspan><tspan x="69.1" y="0" class="st6 st3">s</tspan><tspan x="73.9" y="2" class="st4 st5">p</tspan><tspan x="77.2" y="0" class="st2 st3">)</tspan><tspan x="-2.5" y="12" class="st4 st3">p</tspan><tspan x="1.8" y="12" class="st2 st3">th coefficient modulo </tspan><tspan x="75.7" y="12" class="st4 st3">m</tspan><tspan x="5.8" y="21.6" class="st2 st3">of the </tspan><tspan x="27.5" y="21.6" class="st4 st3">L</tspan><tspan x="31.9" y="21.6" class="st2 st3">-series for </tspan><tspan x="68.7" y="21.6" class="st4 st3">E</tspan></text>
	<text transform="matrix(1 0 0 1 150.8591 296.7664)"><tspan x="0" y="0" class="st4 st3">L</tspan><tspan x="4.4" y="0" class="st2 st3">-series</tspan><tspan x="-21.4" y="12" class="st2 st3">encodes information</tspan><tspan x="-29.3" y="21.6" class="st2 st3">about rational points of </tspan><tspan x="51.9" y="21.6" class="st4 st3">E</tspan></text>
</g>
</svg>
